<?xml version="1.0" encoding="iso-8859-1"?>
<!-- Generator: Adobe Illustrator 19.0.0, SVG Export Plug-In . SVG Version: 6.00 Build 0)  -->
<svg version="1.1" id="Capa_1" xmlns="http://www.w3.org/2000/svg" xmlns:xlink="http://www.w3.org/1999/xlink" x="0px" y="0px"
	 viewBox="0 0 511.998 511.998" style="enable-background:new 0 0 511.998 511.998;" xml:space="preserve">
<path style="fill:#69F0F7;" d="M437.332,319.998c0,100.148-81.186,181.333-181.333,181.333S74.666,420.145,74.666,319.998
	c0-128,181.333-309.333,181.333-309.333S437.332,191.998,437.332,319.998z"/>
<g>
	<path style="fill:#4C5B66;" d="M255.999,511.998c-105.988-0.123-191.877-86.012-192-192c0-130.912,176.928-309.333,184.459-316.875
		c4.165-4.164,10.917-4.164,15.083,0c7.531,7.541,184.459,185.963,184.459,316.875C447.875,425.985,361.986,511.874,255.999,511.998
		z M255.999,26.014C222.047,61.779,85.332,212.52,85.332,319.998c0,94.257,76.41,170.667,170.667,170.667
		s170.667-76.41,170.667-170.667C426.666,212.456,289.951,61.758,255.999,26.014z"/>
	<path style="fill:#4C5B66;" d="M255.999,447.998c-70.661-0.076-127.924-57.339-128-128h21.333
		c0.065,58.884,47.783,106.602,106.667,106.667V447.998z"/>
</g>
<g>
</g>
<g>
</g>
<g>
</g>
<g>
</g>
<g>
</g>
<g>
</g>
<g>
</g>
<g>
</g>
<g>
</g>
<g>
</g>
<g>
</g>
<g>
</g>
<g>
</g>
<g>
</g>
<g>
</g>
</svg>
